<svg width="46" height="25" viewBox="0 0 46 25" fill="none" xmlns="http://www.w3.org/2000/svg">
<path d="M1.51 24.61C1.07 24.35 0.79 24.07 0.67 23.77C0.55 23.49 0.49 23.25 0.49 23.05C0.49 22.49 0.69 21.73 1.09 20.77C1.51 19.81 2.06 18.72 2.74 17.5C3.44 16.26 4.21 14.98 5.05 13.66C4.31 13.6 3.68 13.56 3.16 13.54C2.64 13.52 2.19 13.51 1.81 13.51H0.76C0.98 12.93 1.36 12.53 1.9 12.31C2.46 12.07 3.12 11.95 3.88 11.95C4.22 11.95 4.57 11.97 4.93 12.01C5.29 12.05 5.66 12.1 6.04 12.16C7.06 10.62 8.1 9.13 9.16 7.69C10.24 6.23 11.24 4.94 12.16 3.82C13.1 2.68 13.88 1.82 14.5 1.24C15.08 0.679999 15.56 0.399999 15.94 0.399999C16.36 0.399999 16.89 0.719999 17.53 1.36C17.33 1.52 17.07 1.95 16.75 2.65C16.45 3.33 16.12 4.19 15.76 5.23C15.42 6.27 15.08 7.41 14.74 8.65C14.4 9.89 14.08 11.16 13.78 12.46C13.5 13.74 13.27 14.96 13.09 16.12C12.93 17.28 12.85 18.3 12.85 19.18C12.85 19.94 12.93 20.53 13.09 20.95C13.27 21.37 13.56 21.58 13.96 21.58C14.48 21.58 15.07 21.22 15.73 20.5C16.39 19.78 17.11 18.66 17.89 17.14L18.19 17.44C17.59 19.04 16.82 20.35 15.88 21.37C14.96 22.39 14 22.9 13 22.9C12.18 22.9 11.58 22.54 11.2 21.82C10.84 21.08 10.66 20.1 10.66 18.88C10.66 17.6 10.83 16.11 11.17 14.41C10.29 14.27 9.48 14.16 8.74 14.08C8.02 13.98 7.35 13.89 6.73 13.81C5.79 15.55 4.87 17.34 3.97 19.18C3.09 21.02 2.27 22.83 1.51 24.61ZM11.38 13.36C11.68 12.04 12.03 10.71 12.43 9.37C12.83 8.01 13.25 6.72 13.69 5.5C14.15 4.28 14.58 3.21 14.98 2.29C14.36 2.67 13.64 3.35 12.82 4.33C12.02 5.29 11.17 6.47 10.27 7.87C9.37 9.25 8.45 10.77 7.51 12.43C8.19 12.57 8.86 12.73 9.52 12.91C10.2 13.07 10.82 13.22 11.38 13.36ZM32.1569 24.61C31.2569 24.61 30.6369 24.41 30.2969 24.01C29.9569 23.61 29.7869 23.1 29.7869 22.48C29.7869 21.9 29.9069 21.21 30.1469 20.41C30.3869 19.61 30.6369 18.84 30.8969 18.1C31.2369 17.12 31.6469 15.97 32.1269 14.65C32.6069 13.33 33.1169 11.95 33.6569 10.51C34.2169 9.07 34.7769 7.65 35.3369 6.25C35.9169 4.85 36.4769 3.58 37.0169 2.44C35.6369 2.46 34.4769 2.49 33.5369 2.53C32.6169 2.57 31.7869 2.63 31.0469 2.71C30.3069 2.77 29.4969 2.88 28.6169 3.04C28.6769 2.36 29.0269 1.83 29.6669 1.45C30.3069 1.07 31.1669 0.799999 32.2469 0.64C33.3269 0.479999 34.5569 0.399999 35.9369 0.399999C37.3169 0.399999 38.5469 0.459999 39.6269 0.579999C40.7269 0.679999 41.7569 0.779998 42.7169 0.879998C43.6769 0.979998 44.6369 1.04 45.5969 1.06C44.9169 1.68 44.1369 2.07 43.2569 2.23C42.3769 2.39 41.4469 2.47 40.4669 2.47C40.1269 2.47 39.7769 2.47 39.4169 2.47C39.0569 2.45 38.6969 2.44 38.3369 2.44C37.6969 4.04 36.9569 6.06 36.1169 8.5C35.2969 10.94 34.4669 13.69 33.6269 16.75C33.1869 18.33 32.8269 19.68 32.5469 20.8C32.2669 21.9 32.1269 22.95 32.1269 23.95C32.1269 24.05 32.1269 24.16 32.1269 24.28C32.1269 24.4 32.1369 24.51 32.1569 24.61Z" fill="black"/>
</svg>
