<svg width="44" height="13" viewBox="0 0 44 13" fill="none" xmlns="http://www.w3.org/2000/svg">
<path d="M1.204 10.044C1.028 9.94 0.916 9.828 0.868 9.708C0.82 9.596 0.796 9.5 0.796 9.42C0.796 9.196 0.876 8.892 1.036 8.508C1.204 8.124 1.424 7.688 1.696 7.2C1.976 6.704 2.284 6.192 2.62 5.664C2.324 5.64 2.072 5.624 1.864 5.616C1.656 5.608 1.476 5.604 1.324 5.604H0.904C0.992 5.372 1.144 5.212 1.36 5.124C1.584 5.028 1.848 4.98 2.152 4.98C2.288 4.98 2.428 4.988 2.572 5.004C2.716 5.02 2.864 5.04 3.016 5.064C3.424 4.448 3.84 3.852 4.264 3.276C4.696 2.692 5.096 2.176 5.464 1.728C5.84 1.272 6.152 0.927999 6.4 0.696C6.632 0.472 6.824 0.36 6.976 0.36C7.144 0.36 7.356 0.488 7.612 0.744C7.532 0.808 7.428 0.98 7.3 1.26C7.18 1.532 7.048 1.876 6.904 2.292C6.768 2.708 6.632 3.164 6.496 3.66C6.36 4.156 6.232 4.664 6.112 5.184C6 5.696 5.908 6.184 5.836 6.648C5.772 7.112 5.74 7.52 5.74 7.872C5.74 8.176 5.772 8.412 5.836 8.58C5.908 8.748 6.024 8.832 6.184 8.832C6.392 8.832 6.628 8.688 6.892 8.4C7.156 8.112 7.444 7.664 7.756 7.056L7.876 7.176C7.636 7.816 7.328 8.34 6.952 8.748C6.584 9.156 6.2 9.36 5.8 9.36C5.472 9.36 5.232 9.216 5.08 8.928C4.936 8.632 4.864 8.24 4.864 7.752C4.864 7.24 4.932 6.644 5.068 5.964C4.716 5.908 4.392 5.864 4.096 5.832C3.808 5.792 3.54 5.756 3.292 5.724C2.916 6.42 2.548 7.136 2.188 7.872C1.836 8.608 1.508 9.332 1.204 10.044ZM5.152 5.544C5.272 5.016 5.412 4.484 5.572 3.948C5.732 3.404 5.9 2.888 6.076 2.4C6.26 1.912 6.432 1.484 6.592 1.116C6.344 1.268 6.056 1.54 5.728 1.932C5.408 2.316 5.068 2.788 4.708 3.348C4.348 3.9 3.98 4.508 3.604 5.172C3.876 5.228 4.144 5.292 4.408 5.364C4.68 5.428 4.928 5.488 5.152 5.544ZM8.51163 9.36C8.16763 9.36 7.91963 9.24 7.76763 9C7.62363 8.768 7.55163 8.476 7.55163 8.124C7.55163 7.74 7.62363 7.284 7.76763 6.756C7.91163 6.228 8.09963 5.672 8.33163 5.088C8.57163 4.504 8.83163 3.936 9.11163 3.384C9.39163 2.824 9.67163 2.316 9.95163 1.86C10.2316 1.404 10.4876 1.04 10.7196 0.767999C10.9596 0.496 11.1476 0.36 11.2836 0.36C11.3716 0.36 11.4436 0.412 11.4996 0.516C11.5556 0.612 11.5996 0.731999 11.6316 0.875999C11.6636 1.012 11.6796 1.136 11.6796 1.248C11.6796 1.464 11.6236 1.748 11.5116 2.1C11.4076 2.444 11.2556 2.832 11.0556 3.264C10.8636 3.688 10.6316 4.12 10.3596 4.56C10.0956 4.992 9.80363 5.408 9.48363 5.808C9.17163 6.208 8.83963 6.552 8.48763 6.84C8.43963 7.056 8.39963 7.268 8.36763 7.476C8.34363 7.676 8.33163 7.868 8.33163 8.052C8.33163 8.668 8.50763 8.976 8.85963 8.976C9.07563 8.976 9.28763 8.88 9.49563 8.688C9.71163 8.496 9.91163 8.256 10.0956 7.968C10.2876 7.672 10.4516 7.368 10.5876 7.056L10.7676 7.152C10.4476 7.832 10.0996 8.372 9.72363 8.772C9.34763 9.164 8.94363 9.36 8.51163 9.36ZM8.59563 6.432C8.87563 6.152 9.14763 5.832 9.41163 5.472C9.67563 5.104 9.91963 4.724 10.1436 4.332C10.3756 3.94 10.5796 3.56 10.7556 3.192C10.9316 2.824 11.0676 2.496 11.1636 2.208C11.2596 1.912 11.3076 1.684 11.3076 1.524C11.3076 1.444 11.2956 1.392 11.2716 1.368C11.2556 1.344 11.2396 1.332 11.2236 1.332C11.1596 1.332 11.0476 1.436 10.8876 1.644C10.7356 1.844 10.5556 2.116 10.3476 2.46C10.1396 2.804 9.92763 3.196 9.71163 3.636C9.49563 4.076 9.28763 4.536 9.08763 5.016C8.89563 5.496 8.73163 5.968 8.59563 6.432ZM11.3716 9.552C10.6596 9.552 10.3036 9.156 10.3036 8.364C10.3036 8.012 10.3676 7.58 10.4956 7.068C10.6316 6.548 10.7996 6.016 10.9996 5.472C10.9196 5.456 10.8436 5.444 10.7716 5.436C10.6996 5.42 10.6316 5.4 10.5676 5.376V5.16C10.6316 5.168 10.7076 5.176 10.7956 5.184C10.8836 5.192 10.9836 5.2 11.0956 5.208C11.2636 4.776 11.4436 4.36 11.6356 3.96C11.8276 3.552 12.0156 3.192 12.1996 2.88C12.3916 2.56 12.5716 2.308 12.7396 2.124C12.9156 1.932 13.0636 1.836 13.1836 1.836C13.2476 1.836 13.3036 1.86 13.3516 1.908C13.4076 1.948 13.4356 2.012 13.4356 2.1C13.4356 2.236 13.3516 2.46 13.1836 2.772C13.0156 3.076 12.8076 3.44 12.5596 3.864C12.3116 4.288 12.0716 4.748 11.8396 5.244H12.2836C12.5476 5.244 12.8236 5.24 13.1116 5.232C13.4076 5.224 13.7036 5.204 13.9996 5.172V5.388C13.1276 5.484 12.4236 5.532 11.8876 5.532H11.7076C11.5236 5.956 11.3676 6.392 11.2396 6.84C11.1116 7.288 11.0476 7.724 11.0476 8.148C11.0476 8.492 11.0996 8.74 11.2036 8.892C11.3076 9.036 11.4796 9.108 11.7196 9.108C12.1356 9.108 12.5436 8.924 12.9436 8.556C13.3436 8.188 13.6956 7.688 13.9996 7.056L14.1556 7.176C13.9636 7.624 13.7196 8.028 13.4236 8.388C13.1356 8.748 12.8156 9.032 12.4636 9.24C12.1116 9.448 11.7476 9.552 11.3716 9.552ZM14.6374 9.312C14.3254 9.312 14.0934 9.212 13.9414 9.012C13.7894 8.82 13.7134 8.584 13.7134 8.304C13.7134 8.12 13.7454 7.888 13.8094 7.608C13.8814 7.328 13.9734 7.036 14.0854 6.732C14.1974 6.42 14.3254 6.128 14.4694 5.856C14.6214 5.584 14.7814 5.364 14.9494 5.196C15.1174 5.02 15.2814 4.932 15.4414 4.932C15.5134 4.932 15.5734 4.956 15.6214 5.004C15.6774 5.044 15.7054 5.108 15.7054 5.196C15.7054 5.292 15.6414 5.448 15.5134 5.664C15.3934 5.88 15.2494 6.128 15.0814 6.408C14.9134 6.688 14.7654 6.984 14.6374 7.296C14.5174 7.6 14.4574 7.892 14.4574 8.172C14.4574 8.46 14.5054 8.652 14.6014 8.748C14.6974 8.844 14.8454 8.892 15.0454 8.892C15.3174 8.892 15.6054 8.756 15.9094 8.484C16.2214 8.212 16.5494 7.736 16.8934 7.056L17.0014 7.176C16.7694 7.864 16.4334 8.392 15.9934 8.76C15.5614 9.128 15.1094 9.312 14.6374 9.312ZM20.5557 9.24C20.2757 9.24 20.0637 9.168 19.9197 9.024C19.7837 8.88 19.7157 8.696 19.7157 8.472C19.7157 8.304 19.7437 8.128 19.7997 7.944C19.8637 7.76 19.9237 7.572 19.9797 7.38C20.0357 7.18 20.0637 6.988 20.0637 6.804C20.0637 6.58 20.0157 6.428 19.9197 6.348C19.8317 6.26 19.7197 6.216 19.5837 6.216C19.3357 6.216 19.0837 6.32 18.8277 6.528C18.5717 6.728 18.3237 6.988 18.0837 7.308C17.8437 7.62 17.6197 7.944 17.4117 8.28C17.2037 8.616 17.0197 8.916 16.8597 9.18C16.7317 9.18 16.6117 9.156 16.4997 9.108C16.3797 9.068 16.2877 9.004 16.2237 8.916C16.2237 8.876 16.2677 8.752 16.3557 8.544C16.4357 8.336 16.5317 8.08 16.6437 7.776C16.7557 7.472 16.8557 7.16 16.9437 6.84C17.0317 6.52 17.0757 6.228 17.0757 5.964C17.1237 5.908 17.1997 5.852 17.3037 5.796C17.4077 5.74 17.5157 5.712 17.6277 5.712C17.8437 5.712 17.9517 5.816 17.9517 6.024C17.9517 6.152 17.9157 6.368 17.8437 6.672C17.7717 6.968 17.6797 7.28 17.5677 7.608C17.7837 7.28 18.0237 6.956 18.2877 6.636C18.5597 6.308 18.8477 6.036 19.1517 5.82C19.4557 5.604 19.7597 5.496 20.0637 5.496C20.3757 5.496 20.5997 5.608 20.7357 5.832C20.8797 6.056 20.9517 6.304 20.9517 6.576C20.9517 6.824 20.9117 7.056 20.8317 7.272C20.7517 7.48 20.6677 7.684 20.5797 7.884C20.4997 8.076 20.4597 8.272 20.4597 8.472C20.4597 8.64 20.4917 8.76 20.5557 8.832C20.6277 8.896 20.7157 8.928 20.8197 8.928C21.0197 8.928 21.2197 8.836 21.4197 8.652C21.6197 8.46 21.8117 8.22 21.9957 7.932C22.1877 7.644 22.3557 7.352 22.4997 7.056L22.6317 7.212C22.3837 7.796 22.0877 8.28 21.7437 8.664C21.3997 9.048 21.0037 9.24 20.5557 9.24ZM27.6307 10.044C27.2707 10.044 27.0227 9.964 26.8867 9.804C26.7507 9.644 26.6827 9.44 26.6827 9.192C26.6827 8.96 26.7307 8.684 26.8267 8.364C26.9227 8.044 27.0227 7.736 27.1267 7.44C27.2627 7.048 27.4267 6.588 27.6187 6.06C27.8107 5.532 28.0147 4.98 28.2307 4.404C28.4547 3.828 28.6787 3.26 28.9027 2.7C29.1347 2.14 29.3587 1.632 29.5747 1.176C29.0227 1.184 28.5587 1.196 28.1827 1.212C27.8147 1.228 27.4827 1.252 27.1867 1.284C26.8907 1.308 26.5667 1.352 26.2147 1.416C26.2387 1.144 26.3787 0.932 26.6347 0.779999C26.8907 0.627999 27.2347 0.52 27.6667 0.456C28.0987 0.392 28.5907 0.36 29.1427 0.36C29.6947 0.36 30.1867 0.384 30.6187 0.431999C31.0587 0.471999 31.4707 0.511999 31.8547 0.551999C32.2387 0.591999 32.6227 0.615999 33.0067 0.624C32.7347 0.872 32.4227 1.028 32.0707 1.092C31.7187 1.156 31.3467 1.188 30.9547 1.188C30.8187 1.188 30.6787 1.188 30.5347 1.188C30.3907 1.18 30.2467 1.176 30.1027 1.176C29.8467 1.816 29.5507 2.624 29.2147 3.6C28.8867 4.576 28.5547 5.676 28.2187 6.9C28.0427 7.532 27.8987 8.072 27.7867 8.52C27.6747 8.96 27.6187 9.38 27.6187 9.78C27.6187 9.82 27.6187 9.864 27.6187 9.912C27.6187 9.96 27.6227 10.004 27.6307 10.044ZM30.8143 9.564C30.5663 9.564 30.3583 9.48 30.1903 9.312C30.0143 9.152 29.9263 8.904 29.9263 8.568C29.9263 8.28 29.9903 7.972 30.1183 7.644C30.2463 7.308 30.4223 6.98 30.6463 6.66C30.8703 6.332 31.1223 6.036 31.4023 5.772C31.6903 5.5 31.9903 5.284 32.3023 5.124C32.6223 4.964 32.9383 4.884 33.2503 4.884C33.5623 4.884 33.8223 4.968 34.0303 5.136C34.2383 5.296 34.3423 5.512 34.3423 5.784C34.3423 5.984 34.2863 6.12 34.1743 6.192C34.0703 6.264 33.9303 6.3 33.7543 6.3C33.7943 6.156 33.8143 6.016 33.8143 5.88C33.8143 5.696 33.7703 5.54 33.6823 5.412C33.5943 5.276 33.4423 5.208 33.2263 5.208C33.0023 5.208 32.7743 5.288 32.5423 5.448C32.3103 5.6 32.0863 5.808 31.8703 6.072C31.6543 6.328 31.4623 6.608 31.2943 6.912C31.1263 7.216 30.9943 7.516 30.8983 7.812C30.8023 8.108 30.7543 8.372 30.7543 8.604C30.7543 8.916 30.8623 9.072 31.0783 9.072C31.2623 9.072 31.4623 8.988 31.6783 8.82C31.8943 8.644 32.1143 8.424 32.3383 8.16C32.5703 7.888 32.7903 7.608 32.9983 7.32C33.2063 7.032 33.3903 6.768 33.5503 6.528C33.5823 6.48 33.6023 6.456 33.6103 6.456C33.6823 6.464 33.7783 6.496 33.8983 6.552C34.0183 6.6 34.0783 6.668 34.0783 6.756C34.0783 6.828 34.0423 6.928 33.9703 7.056C33.8983 7.176 33.8183 7.316 33.7303 7.476C33.6423 7.636 33.5623 7.8 33.4903 7.968C33.4183 8.128 33.3823 8.28 33.3823 8.424C33.3823 8.544 33.4143 8.664 33.4783 8.784C33.5423 8.896 33.6463 8.952 33.7903 8.952C34.0063 8.952 34.2903 8.796 34.6423 8.484C34.9943 8.164 35.3503 7.688 35.7103 7.056L35.8303 7.176C35.6623 7.608 35.4463 7.988 35.1823 8.316C34.9183 8.644 34.6343 8.9 34.3303 9.084C34.0343 9.268 33.7423 9.36 33.4543 9.36C33.1583 9.36 32.9383 9.272 32.7943 9.096C32.6583 8.92 32.5903 8.728 32.5903 8.52C32.5903 8.416 32.6023 8.3 32.6263 8.172C32.2823 8.636 31.9663 8.984 31.6783 9.216C31.3983 9.448 31.1103 9.564 30.8143 9.564ZM37.5408 9.312C37.2688 9.312 37.0528 9.24 36.8928 9.096C36.7408 8.952 36.6648 8.764 36.6648 8.532C36.6648 8.292 36.7208 8.04 36.8328 7.776C36.9448 7.512 37.0528 7.252 37.1568 6.996C37.2688 6.732 37.3248 6.496 37.3248 6.288C37.3248 6.032 37.2488 5.844 37.0968 5.724C36.9528 5.596 36.8048 5.48 36.6528 5.376C36.4688 5.848 36.2768 6.296 36.0768 6.72C35.8768 7.144 35.7128 7.464 35.5848 7.68L35.4768 7.476C35.5888 7.268 35.7328 6.964 35.9088 6.564C36.0928 6.164 36.2728 5.708 36.4488 5.196C36.3688 5.116 36.3288 5.02 36.3288 4.908C36.3288 4.668 36.3968 4.472 36.5328 4.32C36.6688 4.168 36.7688 4.092 36.8328 4.092C36.9208 4.092 36.9688 4.132 36.9768 4.212C36.9928 4.284 37.0008 4.34 37.0008 4.38C37.0008 4.42 36.9768 4.5 36.9288 4.62C36.8888 4.732 36.8688 4.8 36.8688 4.824C36.8688 4.936 36.9288 5.04 37.0488 5.136C37.1768 5.224 37.3208 5.328 37.4808 5.448C37.6408 5.56 37.7808 5.7 37.9008 5.868C38.0288 6.028 38.0928 6.236 38.0928 6.492C38.0928 6.732 38.0408 6.976 37.9368 7.224C37.8408 7.472 37.7408 7.708 37.6368 7.932C37.5408 8.156 37.4928 8.352 37.4928 8.52C37.4928 8.664 37.5288 8.76 37.6008 8.808C37.6728 8.856 37.7568 8.88 37.8528 8.88C38.0448 8.88 38.2408 8.82 38.4408 8.7C38.6488 8.58 38.8488 8.428 39.0408 8.244C39.2328 8.06 39.4048 7.868 39.5568 7.668C39.7088 7.46 39.8208 7.268 39.8928 7.092L40.0488 7.212C39.8968 7.548 39.6888 7.88 39.4248 8.208C39.1608 8.528 38.8648 8.792 38.5368 9C38.2168 9.208 37.8848 9.312 37.5408 9.312ZM39.5767 12.36C39.3287 12.36 39.1367 12.312 39.0007 12.216C38.8567 12.128 38.7847 11.972 38.7847 11.748C38.7847 11.492 38.8727 11.252 39.0487 11.028C39.2167 10.812 39.4447 10.604 39.7327 10.404C40.0207 10.204 40.3367 10 40.6807 9.792C41.0327 9.592 41.3807 9.376 41.7247 9.144C41.7247 8.856 41.6647 8.592 41.5447 8.352C41.4247 8.112 41.2087 7.868 40.8967 7.62C41.1767 7.54 41.4127 7.4 41.6047 7.2C41.8047 7 41.9527 6.78 42.0487 6.54C42.1527 6.292 42.2047 6.064 42.2047 5.856C42.2047 5.672 42.1647 5.52 42.0847 5.4C42.0127 5.28 41.8967 5.22 41.7367 5.22C41.4727 5.22 41.2367 5.32 41.0287 5.52C40.8207 5.72 40.6287 5.984 40.4527 6.312C40.2767 6.64 40.0967 7 39.9127 7.392L39.7687 7.272C39.9447 6.792 40.1247 6.364 40.3087 5.988C40.5007 5.612 40.7247 5.316 40.9807 5.1C41.2367 4.876 41.5447 4.764 41.9047 4.764C42.1767 4.764 42.4087 4.852 42.6007 5.028C42.8007 5.204 42.9007 5.444 42.9007 5.748C42.9007 6.036 42.8327 6.304 42.6967 6.552C42.5607 6.8 42.3847 7.02 42.1687 7.212C41.9527 7.396 41.7247 7.548 41.4847 7.668C41.9007 7.988 42.1807 8.348 42.3247 8.748C42.6287 8.516 42.8967 8.264 43.1287 7.992C43.3687 7.712 43.5447 7.4 43.6567 7.056L43.7887 7.2C43.6767 7.56 43.4967 7.888 43.2487 8.184C43.0007 8.472 42.7167 8.736 42.3967 8.976C42.4127 9.032 42.4247 9.096 42.4327 9.168C42.4407 9.24 42.4447 9.308 42.4447 9.372C42.4447 9.732 42.3647 10.088 42.2047 10.44C42.0447 10.8 41.8287 11.124 41.5567 11.412C41.2847 11.7 40.9767 11.928 40.6327 12.096C40.2967 12.272 39.9447 12.36 39.5767 12.36ZM39.4927 12.012C39.6367 12.012 39.8247 11.952 40.0567 11.832C40.2887 11.72 40.5247 11.552 40.7647 11.328C41.0047 11.112 41.2127 10.844 41.3887 10.524C41.5647 10.204 41.6727 9.836 41.7127 9.42C41.2887 9.692 40.8767 9.944 40.4767 10.176C40.0847 10.408 39.7607 10.636 39.5047 10.86C39.2487 11.092 39.1207 11.344 39.1207 11.616C39.1207 11.752 39.1567 11.852 39.2287 11.916C39.3007 11.98 39.3887 12.012 39.4927 12.012Z" fill="black"/>
</svg>
