<svg width="64" height="27" viewBox="0 0 64 27" fill="none" xmlns="http://www.w3.org/2000/svg">
<path d="M1.51 24.61C1.07 24.35 0.79 24.07 0.67 23.77C0.55 23.49 0.49 23.25 0.49 23.05C0.49 22.49 0.69 21.73 1.09 20.77C1.51 19.81 2.06 18.72 2.74 17.5C3.44 16.26 4.21 14.98 5.05 13.66C4.31 13.6 3.68 13.56 3.16 13.54C2.64 13.52 2.19 13.51 1.81 13.51H0.76C0.98 12.93 1.36 12.53 1.9 12.31C2.46 12.07 3.12 11.95 3.88 11.95C4.22 11.95 4.57 11.97 4.93 12.01C5.29 12.05 5.66 12.1 6.04 12.16C7.06 10.62 8.1 9.13 9.16 7.69C10.24 6.23 11.24 4.94 12.16 3.82C13.1 2.68 13.88 1.82 14.5 1.24C15.08 0.679999 15.56 0.399999 15.94 0.399999C16.36 0.399999 16.89 0.719999 17.53 1.36C17.33 1.52 17.07 1.95 16.75 2.65C16.45 3.33 16.12 4.19 15.76 5.23C15.42 6.27 15.08 7.41 14.74 8.65C14.4 9.89 14.08 11.16 13.78 12.46C13.5 13.74 13.27 14.96 13.09 16.12C12.93 17.28 12.85 18.3 12.85 19.18C12.85 19.94 12.93 20.53 13.09 20.95C13.27 21.37 13.56 21.58 13.96 21.58C14.48 21.58 15.07 21.22 15.73 20.5C16.39 19.78 17.11 18.66 17.89 17.14L18.19 17.44C17.59 19.04 16.82 20.35 15.88 21.37C14.96 22.39 14 22.9 13 22.9C12.18 22.9 11.58 22.54 11.2 21.82C10.84 21.08 10.66 20.1 10.66 18.88C10.66 17.6 10.83 16.11 11.17 14.41C10.29 14.27 9.48 14.16 8.74 14.08C8.02 13.98 7.35 13.89 6.73 13.81C5.79 15.55 4.87 17.34 3.97 19.18C3.09 21.02 2.27 22.83 1.51 24.61ZM11.38 13.36C11.68 12.04 12.03 10.71 12.43 9.37C12.83 8.01 13.25 6.72 13.69 5.5C14.15 4.28 14.58 3.21 14.98 2.29C14.36 2.67 13.64 3.35 12.82 4.33C12.02 5.29 11.17 6.47 10.27 7.87C9.37 9.25 8.45 10.77 7.51 12.43C8.19 12.57 8.86 12.73 9.52 12.91C10.2 13.07 10.82 13.22 11.38 13.36ZM24.5069 26.86C24.9069 26.46 25.3769 25.8 25.9169 24.88C26.4369 23.98 26.9969 22.9 27.5969 21.64C28.2169 20.38 28.8469 19.02 29.4869 17.56C30.1269 16.08 30.7569 14.58 31.3769 13.06C32.0169 11.54 32.6169 10.07 33.1769 8.65C33.7569 7.21 34.2769 5.9 34.7369 4.72C35.2169 3.52 35.6069 2.53 35.9069 1.75C35.9869 1.55 36.1669 1.35 36.4469 1.15C36.7269 0.949999 37.0469 0.779999 37.4069 0.64C37.7669 0.479999 38.1069 0.399999 38.4269 0.399999C38.3269 0.64 38.1269 1.13 37.8269 1.87C37.5269 2.61 37.1569 3.51 36.7169 4.57C36.2769 5.63 35.7969 6.79 35.2769 8.05C34.7569 9.31 34.2269 10.6 33.6869 11.92C33.1469 13.22 32.6169 14.48 32.0969 15.7C31.5969 16.9 31.1369 17.99 30.7169 18.97C30.3169 19.95 29.9969 20.74 29.7569 21.34C29.0169 23.12 28.1669 24.48 27.2069 25.42C26.2669 26.38 25.3669 26.86 24.5069 26.86ZM49.8522 24.61C48.9522 24.61 48.3322 24.41 47.9922 24.01C47.6522 23.61 47.4822 23.1 47.4822 22.48C47.4822 21.9 47.6022 21.21 47.8422 20.41C48.0822 19.61 48.3322 18.84 48.5922 18.1C48.9322 17.12 49.3422 15.97 49.8222 14.65C50.3022 13.33 50.8122 11.95 51.3522 10.51C51.9122 9.07 52.4722 7.65 53.0322 6.25C53.6122 4.85 54.1722 3.58 54.7122 2.44C53.3322 2.46 52.1722 2.49 51.2322 2.53C50.3122 2.57 49.4822 2.63 48.7422 2.71C48.0022 2.77 47.1922 2.88 46.3122 3.04C46.3722 2.36 46.7222 1.83 47.3622 1.45C48.0022 1.07 48.8622 0.799999 49.9422 0.64C51.0222 0.479999 52.2522 0.399999 53.6322 0.399999C55.0122 0.399999 56.2422 0.459999 57.3222 0.579999C58.4222 0.679999 59.4522 0.779998 60.4122 0.879998C61.3722 0.979998 62.3322 1.04 63.2922 1.06C62.6122 1.68 61.8322 2.07 60.9522 2.23C60.0722 2.39 59.1422 2.47 58.1622 2.47C57.8222 2.47 57.4722 2.47 57.1122 2.47C56.7522 2.45 56.3922 2.44 56.0322 2.44C55.3922 4.04 54.6522 6.06 53.8122 8.5C52.9922 10.94 52.1622 13.69 51.3222 16.75C50.8822 18.33 50.5222 19.68 50.2422 20.8C49.9622 21.9 49.8222 22.95 49.8222 23.95C49.8222 24.05 49.8222 24.16 49.8222 24.28C49.8222 24.4 49.8322 24.51 49.8522 24.61Z" fill="black"/>
</svg>
